<?xml version="1.0" encoding="UTF-8"?>
<svg id="c" width="158" height="162" version="1.1" viewBox="0 0 158 162" xmlns="http://www.w3.org/2000/svg">
<defs id="d">
<clipPath id="b">
<path id="e" d="m0 0h1008v612h-1008z"/>
</clipPath>
<clipPath id="a">
<path id="f" d="m0 612h1008v-612h-1008z"/>
</clipPath>
</defs>
<g id="g" transform="matrix(1.3333 0 0 -1.3333 0 162)">
<g id="h" transform="translate(-148.99 34.382)">
<g id="i" transform="translate(-177.15 -310.91)">
<g id="j" clip-path="url(#b)">
<g id="k" transform="translate(389.48 325.12)">
<path id="l" d="m0 0c3.632 1.996 6.644 4.8 8.847 8.175-2.206 5.032-7.228 8.559-13.064 8.559h-6.345c5.458 0.772 9.675 5.462 9.675 11.13v6.821c0 6.205-5.049 11.254-11.254 11.254-6.206 0-11.255-5.049-11.255-11.254v-6.821c0-5.668 4.217-10.358 9.676-11.13h-6.345c-5.707 0-10.628-3.377-12.906-8.231 3.243-5.131 8.163-8.876 14.043-10.586 6.382-1.857 13.103-1.116 18.928 2.083" fill="#50b4c8"/>
</g>
<g id="m" transform="translate(348.49 319.58)">
<path id="n" d="m0 0-3.899-19.11h-5.638l-4.732 24.061c-0.184 1.028-1.088 1.792-2.141 1.792h-1.703v20.326c0 3.399 2.765 6.165 6.165 6.165h1.519c0.203 1.338 0.475 2.673 0.817 4h-2.336c-5.605 0-10.165-4.56-10.165-10.165v-22.152c0-1.199 0.975-2.174 2.174-2.174h2.028l4.732-24.061c0.184-1.028 1.088-1.792 2.14-1.792h8.631c1.049 0 1.95 0.759 2.138 1.78l3.695 18.107c-1.197 1-2.341 2.074-3.425 3.223" fill="#231f20"/>
</g>
<g id="o" transform="translate(339.21 358.06)">
<path id="p" d="m0 0c0.089 0.308 0.193 0.608 0.29 0.913-1.677 0.853-2.84 2.577-2.84 4.584v4.541c0 2.845 2.315 5.16 5.16 5.16 1.658 0 3.119-0.799 4.064-2.017 0.825 1.072 1.702 2.102 2.634 3.086-1.673 1.798-4.053 2.931-6.698 2.931-5.051 0-9.16-4.109-9.16-9.16v-4.541c0-3.867 2.412-7.175 5.807-8.517 0.212 1.011 0.451 2.019 0.743 3.02" fill="#231f20"/>
</g>
<g id="q" transform="translate(388.86 308.71)">
<path id="r" d="m0 0v-2.364h-1.646c-1.057 0-1.958-0.74-2.134-1.716l-4.95-24.161h-5.728l-4.762 24.102c-0.178 1.029-1.081 1.775-2.145 1.775h-1.733v2.506c-1.357 0.418-2.694 0.9-4 1.46v-5.83c0-1.178 0.976-2.136 2.176-2.136h2.065l4.762-24.102c0.178-1.029 1.08-1.775 2.145-1.775h8.7c1.057 0 1.958 0.741 2.134 1.716l4.95 24.161h1.99c1.2 0 2.176 0.958 2.176 2.136v5.656c-1.319-0.552-2.653-1.027-4-1.428" fill="#010201"/>
</g>
<g id="s" transform="translate(413.01 377.26)">
<path id="t" d="m0 0c-2.602 0-4.949-1.096-6.618-2.844 0.925-0.971 1.806-1.994 2.639-3.071 0.947 1.159 2.369 1.915 3.979 1.915 2.846 0 5.161-2.315 5.161-5.161v-4.54c0-1.939-1.088-3.611-2.673-4.493 0.42-1.303 0.774-2.622 1.055-3.954 3.297 1.388 5.618 4.651 5.618 8.447v4.54c0 5.052-4.11 9.161-9.161 9.161" fill="#231f20"/>
</g>
<g id="u" transform="translate(418.28 352.82)">
<path id="v" d="m0 0c3.399 0 6.165-2.766 6.165-6.165v-20.326h-1.617c-1.01 0-1.883-0.703-2.115-1.668l-0.478-1.701c0.566-0.375 1.106-0.8 1.593-1.301l1.699-1.769 0.686 2.439h2.057c1.199 0 2.175 0.975 2.175 2.175v22.151c0 5.605-4.56 10.165-10.165 10.165h-2.136c0.341-1.321 0.609-2.656 0.81-4z" fill="#231f20"/>
</g>
<g id="w" transform="translate(442.79 292.61)">
<path id="x" d="m0 0-24.539 25.555c-1.695 1.74-4.375 1.91-6.284 0.521l-8.417 8.244-6.673-6.498 8.393-8.219c-1.665-1.874-1.642-4.734 0.135-6.558l24.538-25.555c1.861-1.91 4.917-1.95 6.827-0.09l5.929 5.774c1.91 1.86 1.951 4.916 0.091 6.826" fill="#000001"/>
</g>
<g id="y" transform="translate(377.46 376.32)">
<path id="z" d="m0 0c-4.879 0-9.708-1.229-14.104-3.643-6.877-3.778-11.873-10.009-14.064-17.544-2.192-7.535-1.318-15.473 2.46-22.351 7.8-14.198 25.697-19.405 39.895-11.605s19.404 25.697 11.605 39.895c-3.779 6.878-10.009 11.873-17.544 14.065-2.72 0.791-5.492 1.183-8.248 1.183m0.101-64.766c-12.501 0-24.636 6.63-31.068 18.339-4.55 8.283-5.602 17.842-2.963 26.916 2.64 9.073 8.655 16.577 16.938 21.127 17.099 9.392 38.649 3.123 48.042-13.975s3.124-38.65-13.974-48.042c-5.389-2.961-11.221-4.365-16.975-4.365" fill="#000001"/>
</g>
</g>
</g>
<g id="aa" transform="translate(-177.15 -310.91)">
<g id="ab" clip-path="url(#a)">
<g id="ac" transform="translate(387.51 375.22)">
<path id="ad" d="m0 0c0.216 0.021 0.394 0.17 0.456 0.378l4.815 16.1c0.148 0.494-0.421 0.89-0.833 0.579l-7.173-5.413c-0.242-0.184-0.588-0.127-0.761 0.123l-6.356 9.202c-0.201 0.291-0.63 0.291-0.831 0l-6.356-9.202c-0.172-0.25-0.519-0.307-0.761-0.123l-7.173 5.413c-0.412 0.311-0.981-0.085-0.833-0.579l4.815-16.1c0.062-0.208 0.24-0.357 0.456-0.378 1.452-0.142 7.35-0.667 10.267-0.667 2.918 0 8.816 0.525 10.268 0.667" fill="#f5eb13"/>
</g>
<g id="ae" transform="translate(387.51 375.22)">
<path id="af" d="m0 0c0.216 0.021 0.394 0.17 0.456 0.378l4.815 16.1c0.148 0.494-0.421 0.89-0.833 0.579l-7.173-5.413c-0.242-0.184-0.588-0.127-0.761 0.123l-6.356 9.202c-0.201 0.291-0.63 0.291-0.831 0l-6.356-9.202c-0.172-0.25-0.519-0.307-0.761-0.123l-7.173 5.413c-0.412 0.311-0.981-0.085-0.833-0.579l4.815-16.1c0.062-0.208 0.24-0.357 0.456-0.378 1.452-0.142 7.35-0.667 10.267-0.667 2.918 0 8.816 0.525 10.268 0.667z" fill="none" stroke="#000" stroke-miterlimit="10" stroke-width="3"/>
</g>
</g>
</g>
</g>
</g>
</svg>
