<svg
   xmlns:dc="http://purl.org/dc/elements/1.1/"
   xmlns:cc="http://creativecommons.org/ns#"
   xmlns:rdf="http://www.w3.org/1999/02/22-rdf-syntax-ns#"
   xmlns:svg="http://www.w3.org/2000/svg"
   xmlns="http://www.w3.org/2000/svg"
   xmlns:sodipodi="http://sodipodi.sourceforge.net/DTD/sodipodi-0.dtd"
   xmlns:inkscape="http://www.inkscape.org/namespaces/inkscape"
   version="1.1"
   id="svg2"
   xml:space="preserve"
   width="158"
   height="162"
   viewBox="0 0 158 162"
   sodipodi:docname="plain.svg"
   inkscape:version="0.92.5 (2060ec1f9f, 2020-04-08)"><metadata
     id="metadata8"><rdf:RDF><cc:Work
         rdf:about=""><dc:format>image/svg+xml</dc:format><dc:type
           rdf:resource="http://purl.org/dc/dcmitype/StillImage" /><dc:title></dc:title></cc:Work></rdf:RDF></metadata><defs
     id="defs6"><clipPath
       clipPathUnits="userSpaceOnUse"
       id="clipPath18"><path
         d="M 0,0 H 1008 V 612 H 0 Z"
         id="path16"
         inkscape:connector-curvature="0" /></clipPath><clipPath
       clipPathUnits="userSpaceOnUse"
       id="clipPath66"><path
         d="M 0,612 H 1008 V 0 H 0 Z"
         id="path64"
         inkscape:connector-curvature="0" /></clipPath></defs><sodipodi:namedview
     pagecolor="#ffffff"
     bordercolor="#666666"
     borderopacity="1"
     objecttolerance="10"
     gridtolerance="10"
     guidetolerance="10"
     inkscape:pageopacity="0"
     inkscape:pageshadow="2"
     inkscape:window-width="1844"
     inkscape:window-height="1100"
     id="namedview4"
     showgrid="false"
     inkscape:zoom="4.627451"
     inkscape:cx="86.603704"
     inkscape:cy="74.181699"
     inkscape:window-x="789"
     inkscape:window-y="928"
     inkscape:window-maximized="0"
     inkscape:current-layer="g59" /><g
     id="g10"
     inkscape:groupmode="layer"
     inkscape:label="lOGO Knothm Final V3"
     transform="matrix(1.3333333,0,0,-1.3333333,0,162)"><g
       id="g59"
       transform="translate(-148.9868,34.38157)"><g
         id="g12"
         transform="translate(-177.15331,-310.91232)"><g
           clip-path="url(#clipPath18)"
           id="g14"><g
             transform="translate(389.481,325.1187)"
             id="g20"><path
               inkscape:connector-curvature="0"
               id="path22"
               style="fill:#50b4c8;fill-opacity:1;fill-rule:nonzero;stroke:none"
               d="m 0,0 c 3.632,1.996 6.644,4.8 8.847,8.175 -2.206,5.032 -7.228,8.559 -13.064,8.559 h -6.345 c 5.458,0.772 9.675,5.462 9.675,11.13 v 6.821 c 0,6.205 -5.049,11.254 -11.254,11.254 -6.206,0 -11.255,-5.049 -11.255,-11.254 v -6.821 c 0,-5.668 4.217,-10.358 9.676,-11.13 h -6.345 c -5.707,0 -10.628,-3.377 -12.906,-8.231 3.243,-5.131 8.163,-8.876 14.043,-10.586 C -12.546,-3.94 -5.825,-3.199 0,0" /></g><g
             transform="translate(348.4927,319.5835)"
             id="g24"><path
               inkscape:connector-curvature="0"
               id="path26"
               style="fill:#231f20;fill-opacity:1;fill-rule:nonzero;stroke:none"
               d="m 0,0 -3.899,-19.11 h -5.638 l -4.732,24.061 c -0.184,1.028 -1.088,1.792 -2.141,1.792 h -1.703 v 20.326 c 0,3.399 2.765,6.165 6.165,6.165 h 1.519 c 0.203,1.338 0.475,2.673 0.817,4 h -2.336 c -5.605,0 -10.165,-4.56 -10.165,-10.165 V 4.917 c 0,-1.199 0.975,-2.174 2.174,-2.174 h 2.028 l 4.732,-24.061 c 0.184,-1.028 1.088,-1.792 2.14,-1.792 h 8.631 c 1.049,0 1.95,0.759 2.138,1.78 L 3.425,-3.223 C 2.228,-2.223 1.084,-1.149 0,0" /></g><g
             transform="translate(339.21,358.063)"
             id="g28"><path
               inkscape:connector-curvature="0"
               id="path30"
               style="fill:#231f20;fill-opacity:1;fill-rule:nonzero;stroke:none"
               d="M 0,0 C 0.089,0.308 0.193,0.608 0.29,0.913 -1.387,1.766 -2.55,3.49 -2.55,5.497 v 4.541 c 0,2.845 2.315,5.16 5.16,5.16 1.658,0 3.119,-0.799 4.064,-2.017 0.825,1.072 1.702,2.102 2.634,3.086 -1.673,1.798 -4.053,2.931 -6.698,2.931 -5.051,0 -9.16,-4.109 -9.16,-9.16 V 5.497 c 0,-3.867 2.412,-7.175 5.807,-8.517 C -0.531,-2.009 -0.292,-1.001 0,0" /></g><g
             transform="translate(388.8628,308.7114)"
             id="g32"><path
               inkscape:connector-curvature="0"
               id="path34"
               style="fill:#010201;fill-opacity:1;fill-rule:nonzero;stroke:none"
               d="m 0,0 v -2.364 h -1.646 c -1.057,0 -1.958,-0.74 -2.134,-1.716 l -4.95,-24.161 h -5.728 l -4.762,24.102 c -0.178,1.029 -1.081,1.775 -2.145,1.775 h -1.733 v 2.506 c -1.357,0.418 -2.694,0.9 -4,1.46 v -5.83 c 0,-1.178 0.976,-2.136 2.176,-2.136 h 2.065 l 4.762,-24.102 c 0.178,-1.029 1.08,-1.775 2.145,-1.775 h 8.7 c 1.057,0 1.958,0.741 2.134,1.716 l 4.95,24.161 h 1.99 c 1.2,0 2.176,0.958 2.176,2.136 L 4,1.428 C 2.681,0.876 1.347,0.401 0,0" /></g><g
             transform="translate(413.0073,377.2612)"
             id="g36"><path
               inkscape:connector-curvature="0"
               id="path38"
               style="fill:#231f20;fill-opacity:1;fill-rule:nonzero;stroke:none"
               d="m 0,0 c -2.602,0 -4.949,-1.096 -6.618,-2.844 0.925,-0.971 1.806,-1.994 2.639,-3.071 C -3.032,-4.756 -1.61,-4 0,-4 2.846,-4 5.161,-6.315 5.161,-9.161 v -4.54 c 0,-1.939 -1.088,-3.611 -2.673,-4.493 0.42,-1.303 0.774,-2.622 1.055,-3.954 3.297,1.388 5.618,4.651 5.618,8.447 v 4.54 C 9.161,-4.109 5.051,0 0,0" /></g><g
             transform="translate(418.2832,352.8174)"
             id="g40"><path
               inkscape:connector-curvature="0"
               id="path42"
               style="fill:#231f20;fill-opacity:1;fill-rule:nonzero;stroke:none"
               d="M 0,0 C 3.399,0 6.165,-2.766 6.165,-6.165 V -26.491 H 4.548 c -1.01,0 -1.883,-0.703 -2.115,-1.668 L 1.955,-29.86 c 0.566,-0.375 1.106,-0.8 1.593,-1.301 l 1.699,-1.769 0.686,2.439 H 7.99 c 1.199,0 2.175,0.975 2.175,2.175 V -6.165 C 10.165,-0.56 5.605,4 0,4 h -2.136 c 0.341,-1.321 0.609,-2.656 0.81,-4 z" /></g><g
             transform="translate(442.7886,292.6133)"
             id="g44"><path
               inkscape:connector-curvature="0"
               id="path46"
               style="fill:#000001;fill-opacity:1;fill-rule:nonzero;stroke:none"
               d="m 0,0 -24.539,25.555 c -1.695,1.74 -4.375,1.91 -6.284,0.521 l -8.417,8.244 -6.673,-6.498 8.393,-8.219 c -1.665,-1.874 -1.642,-4.734 0.135,-6.558 l 24.538,-25.555 c 1.861,-1.91 4.917,-1.95 6.827,-0.09 l 5.929,5.774 C 1.819,-4.966 1.86,-1.91 0,0" /></g><g
             transform="translate(377.4604,376.3174)"
             id="g48"><path
               inkscape:connector-curvature="0"
               id="path50"
               style="fill:#000001;fill-opacity:1;fill-rule:nonzero;stroke:none"
               d="m 0,0 c -4.879,0 -9.708,-1.229 -14.104,-3.643 -6.877,-3.778 -11.873,-10.009 -14.064,-17.544 -2.192,-7.535 -1.318,-15.473 2.46,-22.351 7.8,-14.198 25.697,-19.405 39.895,-11.605 14.198,7.8 19.404,25.697 11.605,39.895 C 22.013,-8.37 15.783,-3.375 8.248,-1.183 5.528,-0.392 2.756,0 0,0 m 0.101,-64.766 c -12.501,0 -24.636,6.63 -31.068,18.339 -4.55,8.283 -5.602,17.842 -2.963,26.916 2.64,9.073 8.655,16.577 16.938,21.127 17.099,9.392 38.649,3.123 48.042,-13.975 9.393,-17.098 3.124,-38.65 -13.974,-48.042 -5.389,-2.961 -11.221,-4.365 -16.975,-4.365" /></g></g></g><g
         id="g60"
         transform="translate(-177.15331,-310.91232)"><g
           clip-path="url(#clipPath66)"
           id="g62"><g
             transform="translate(387.5088,375.2227)"
             id="g68"><path
               inkscape:connector-curvature="0"
               id="path70"
               style="fill:#f5eb13;fill-opacity:1;fill-rule:nonzero;stroke:none"
               d="m 0,0 c 0.216,0.021 0.394,0.17 0.456,0.378 l 4.815,16.1 c 0.148,0.494 -0.421,0.89 -0.833,0.579 l -7.173,-5.413 c -0.242,-0.184 -0.588,-0.127 -0.761,0.123 l -6.356,9.202 c -0.201,0.291 -0.63,0.291 -0.831,0 l -6.356,-9.202 c -0.172,-0.25 -0.519,-0.307 -0.761,-0.123 l -7.173,5.413 c -0.412,0.311 -0.981,-0.085 -0.833,-0.579 l 4.815,-16.1 c 0.062,-0.208 0.24,-0.357 0.456,-0.378 1.452,-0.142 7.35,-0.667 10.267,-0.667 2.918,0 8.816,0.525 10.268,0.667" /></g><g
             transform="translate(387.5088,375.2227)"
             id="g72"><path
               inkscape:connector-curvature="0"
               id="path74"
               style="fill:none;stroke:#000000;stroke-width:3;stroke-linecap:butt;stroke-linejoin:miter;stroke-miterlimit:10;stroke-dasharray:none;stroke-opacity:1"
               d="m 0,0 c 0.216,0.021 0.394,0.17 0.456,0.378 l 4.815,16.1 c 0.148,0.494 -0.421,0.89 -0.833,0.579 l -7.173,-5.413 c -0.242,-0.184 -0.588,-0.127 -0.761,0.123 l -6.356,9.202 c -0.201,0.291 -0.63,0.291 -0.831,0 l -6.356,-9.202 c -0.172,-0.25 -0.519,-0.307 -0.761,-0.123 l -7.173,5.413 c -0.412,0.311 -0.981,-0.085 -0.833,-0.579 l 4.815,-16.1 c 0.062,-0.208 0.24,-0.357 0.456,-0.378 1.452,-0.142 7.35,-0.667 10.267,-0.667 2.918,0 8.816,0.525 10.268,0.667 z" /></g></g></g></g></g></svg>